<mxfile host="app.diagrams.net" modified="2023-04-26T17:28:16.889Z" agent="Mozilla/5.0 (X11; Ubuntu; Linux x86_64; rv:109.0) Gecko/20100101 Firefox/112.0" version="21.2.2" etag="QDX7ipR4S7RHtABAtQbr" type="github">
  <diagram name="PÃ¡gina-1" id="rn06cLacB7bPF1kg1v2M">
    <mxGraphModel>
      <root>
        <mxCell id="0" />
        <mxCell id="1" parent="0" />
      </root>
    </mxGraphModel>
  </diagram>
</mxfile>
